<svg xmlns="http://www.w3.org/2000/svg" width="114" height="114" viewBox="0 0 114 114" fill="none">
<g clip-path="url(#clip0_5_2)">
<path d="M110.703 52.9886C108.298 50.6885 105.881 48.3776 103.529 48.4413L83.5292 50.0714L46.172 14.3497L40.3111 15.6634L58.7492 49.4435L42.3105 52.1653L31.4692 41.7987L24.3999 41.9569L29.3273 51.2734L25.8718 54.8871C24.709 56.2614 24.78 58.448 25.9771 59.5926L29.5908 63.0482L25.0852 72.5758L32.1545 72.4176L42.5211 61.5763L59.0651 63.56L42.1567 98.1311L48.0705 99.1813L83.7814 61.8354L103.834 62.5691C106.198 62.5162 108.498 60.1108 110.809 57.6941C111.953 56.497 111.9 54.1332 110.703 52.9886Z" fill="white"/>
</g>
<defs>
<clipPath id="clip0_5_2">
<rect width="80" height="80" fill="white" transform="translate(55.2887) rotate(43.7179)"/>
</clipPath>
</defs>
</svg>