<?xml version="1.0" encoding="UTF-8"?><svg xmlns="http://www.w3.org/2000/svg" viewBox="0 0 507.83 192.71"><defs><style>.d,.e{fill:#fff;}.e,.f{fill-rule:evenodd;}.f,.g{fill:#59595b;}</style></defs><g id="a"/><g id="b"><g id="c"><g><path class="e" d="M496.68,28.1h-3.56v-3.59h3.56c1.13,0,2.4,.54,2.4,1.61,0,1.33-1.02,1.98-2.4,1.98m-5.17,6.58h1.61c0-5.59-.4-5.2,1.19-5.2,1.98,0,2.29,.56,3.3,1.89l2.06,3.3h2c-.25-.9-2.12-3.62-2.91-4.46-.03-.03-.09-.08-.11-.11l-.76-.82c3.87-.09,3.73-6.16-.2-6.16h-6.19v11.55Z"/><path class="e" d="M265.61,102.97c-8.49,0-29.68,8.08-29.68,25.26,0,14.06,8.35,25.66,29.68,25.66,18.21,0,32.96-11.4,32.96-25.46,0-19.35-11.91-25.46-32.96-25.46Zm1.99,45.32c-8.5,0-16.9-8.88-16.9-19.83,0-14.39,7.64-20.17,16.14-20.17,7.14,0,16.14,9.22,16.14,20.17,0,14.32-5.01,19.83-15.39,19.83Z"/><path class="e" d="M29.68,102.97c-8.49,0-29.68,8.08-29.68,25.26,0,14.06,8.35,25.66,29.68,25.66,18.21,0,32.96-11.4,32.96-25.46,0-19.35-11.91-25.46-32.96-25.46Zm1.99,45.32c-8.5,0-16.9-8.88-16.9-19.83,0-14.39,7.64-20.17,16.14-20.17,7.14,0,16.14,9.22,16.14,20.17,0,14.32-5.01,19.83-15.39,19.83Z"/><path class="d" d="M495.71,40.63c-6.7,0-12.15-5.27-12.15-11.74s5.45-11.74,12.15-11.74,12.12,5.27,12.12,11.74-5.44,11.74-12.12,11.74m0-22.1c-5.93,0-10.76,4.65-10.76,10.36s4.83,10.36,10.76,10.36,10.73-4.65,10.73-10.36-4.81-10.36-10.73-10.36"/><path class="d" d="M67.14,108.32v40s-.6,5.2,5.45,5.2,5.95-1.96,5.95-5.52v-28.67s-.07-2.22,.75-2.9,1.41-.8,2.83-.5,19.9,8.18,24.39,13.56c2.04,1.95,2.76,3.08,2.76,5.21v12.71s-.06,6.1,6.97,6.1,6.83-2.15,6.83-5.86v-40.17s.12-4.5-5.11-4.5-6.2,1.34-6.2,4.23,.07,10.75,.07,10.75c0,0-.89,1.09-2.69-.2-1.8-1.29-21.37-12.46-29.98-13.99-8.61-1.53-12.02,.27-12.02,4.52Z"/><path class="d" d="M126.38,129.62c0,2.81-.65,16.14,16.03,22.23,16.68,6.09,33.26-2.17,35.27-3.19s3.25-2.25,2.39-3.84-3.69-1.15-6.57,.47c-2.88,1.62-12.62,5.96-20.75,2.56-8.13-3.4-13.8-15.41-7.04-15.29,6.76,.12,23.77,.12,24.83,.12s6.71,.28,6.71-4.03-5.89-3.41-7.24-3.41h-21.44c-4.43,0-6.23,.46-5.58-4.39s4.16-11.83,12.46-11.83,11.04,4.59,16.78,4.59,8.14-4.18,5.47-6.29-17.35-6.67-26.67-4.32c-9.33,2.35-24.65,9.82-24.65,26.62Z"/><path class="d" d="M229.47,103h-42.5c-2.02,0-3.8,1.56-3.85,3.58s1.61,3.78,3.68,3.78h11.81c1.2,0,2.17,.97,2.17,2.17v37.24c0,2.08,1.68,3.76,3.76,3.76h6.71c2.08,0,3.76-1.68,3.76-3.76v-37.24c0-1.2,.97-2.17,2.17-2.17h12.13c2.02,0,3.8-1.56,3.85-3.58s-1.61-3.78-3.68-3.78Z"/><path class="d" d="M362.3,147.43v-32.58c0-1.05-.15-6.22,4.39-8.42s13.86-5.14,24.65-3.18c10.79,1.96,20.3,8.72,19.22,14.41-1.07,5.7-14.86,12.12-16.55,12.1,0,0-.68,.69,1.02,1.8,1.7,1.12,18.38,13.87,18.38,16.57s1.95,4.68-6.63,5.4c-6.13,.24-7.46-.76-8.26-2.47-.8-1.71-13.25-15.65-15.86-17.02s-2.72-3.92,.28-5.83c3-1.92,3.73-2.22,6.8-3.54,3.07-1.32,6.37-2.37,6.37-7.49s-12.53-9.41-16.01-8.24c-3.48,1.17-4.04,3.35-4.04,10.11v25.98c0,2.36,.46,5.83-1.46,7.28s-4.33,1.18-5.82,1.18-6.45-1.33-6.45-3.23-.04-2.85-.04-2.85Z"/><path class="e" d="M454.15,15.76l-2.18,7.55-.15,.22c-.78,1.43-2.24,5.78-3.88,9.04-3.48,6.99-3.88,7.12-7.96,13.3-.65,.99-.28,.22-.28,.78-.03,.06-.09,.12-.12,.19l-.25,.31c-.06,.03-.09,.06-.12,.12-1.9,1.9-4.82,5.9-7.58,8.61-.99,.93-1.9,1.62-2.86,2.61-1.93,1.96-9.97,8.05-13.14,9.29-1.89,.9-3.36,1.71-5.25,2.52-5.56,2.45-12.34,4.35-18.65,5-8.83,.9-16.78-.09-25.14-1.96-.84-.19-2.42-.53-3.11-.84,.09,.96,1.8,5.22,2.24,6.53l2.36,6.62c.34,1.09,.03,.96,2.8,1.59,5.41,1.15,7.05,1.09,11.81,1.77,2.27,.34,6.09,.34,8.39,.34,5.59,.03,14.67-1.15,19.98-2.36l3.82-.9c.56-.37,5.34-1.68,6.4-2.02,4.82-1.59,7.64-2.83,12.24-4.85,1.89-.87,4.1-2.27,5.97-2.92l8.11-4.88c.96-.59,1.74-1.18,2.77-1.86,9.63-6.4,20.88-18.05,25.7-27.72,1.31-2.61,3.67-8.55,3.73-11.62,.06-1.31-.06-1.37-1.59-2.98l-16.53-18.96c-.53-.53-.56-.56-1.03-1.15-.4-.53-.68-.68-1.06-1.18l-4.66-5.38c-.47-.53-.03-.37-.78-.56,.5,2.11,1.09,5.1,.87,7.86l-.68,5.9c-.12,.87-.47,1.18-.19,1.99"/><path class="e" d="M414.87,86.08c-.56,2.39,1.74,13.61,2.45,16.44,.34,1.4,.65,2.39,1,3.82l2.27,7.36c3.57,10.97,10.32,21.57,18.96,29.24l2.64,2.18c1.68,1.27,1.06,1.18,3.26,.78,1.52-.25,2.55-.5,4.07-.75l24.39-4.51c1.49-.25,2.7-.47,4.1-.75,1.37-.25,2.55-.44,4.07-.72,2.77-.53,5.31-.99,8.11-1.52l8.2-1.9c-3.33-.28-16.63-7.4-20.07-9.51-8.08-4.97-8.73-6.18-14.88-10.94-.78-.62-1.18-1.18-1.93-1.8l-5.44-5.5c-.44-.44-.47-.53-.81-.96-5.16-6.4-8.86-11.09-12.15-19.36-1.37-3.45-2.95-7.46-3.64-11.4-1.86,.65-4.07,2.05-5.97,2.92-4.6,2.02-7.43,3.26-12.24,4.85-1.06,.34-5.84,1.65-6.4,2.02"/><path class="e" d="M415.62,67.78c3.17-1.24,11.22-7.33,13.14-9.29,.96-.99,1.86-1.68,2.86-2.61,2.77-2.7,5.69-6.71,7.58-8.61,.03-.06,.06-.09,.13-.12l.25-.31c.03-.06,.09-.12,.12-.19-.37-.16-.65,.37-.19-1.68,.12-.56,.4-1.15,.59-1.65l2.67-6.28c1.18-2.61,3.26-6.56,4.75-8.83,1.77-2.64,3.33-4.23,4.01-5.22,.87,0,.09-.06,.43,.31l2.18-7.55c-3.45,1.15-7.77,4.66-10.57,6.56-1.12,.75-2.11,1.62-3.17,2.52-.5,.44-.93,.75-1.43,1.18-.53,.47-.87,.93-1.43,1.43l-5.66,5.72c-2.83,3.67-4.38,5.16-7.15,9.73-1.37,2.27-2.86,4.88-3.95,7.43l-3.14,8.24c-.56,1.71-2.05,7.27-2.05,9.23"/><path class="d" d="M303.16,108.15s-1.08-5.46,6.61-5.46,6.86,4.36,6.86,5.46-.44,27.12,.03,30.52c.46,3.4,4.58,9.49,10.98,9.49s14.19-1.15,16.28-8.15c2.1-7,1.38-29.36,1.38-31.33,0-3.22,.78-5.85,5.85-5.85s7.24,.44,7.24,6.06c0,2.85,1.92,22.41-5.57,34.78-4.05,6.69-11.36,10.24-22.07,10.24-30.52,0-27.59-20.4-27.59-45.75Z"/><path class="f" d="M350.7,192.49l2.55-5.1c.31-.65,2.21-4.61,2.71-4.98,.22,.97,1.93,4.14,2.49,5.17,.59,1.03,2.33,4.17,2.55,5.14,.78-.56,.25,.06,.5-1.03,.75-2.86,4.76-17.46,4.76-18.92-1.77,0-1.24,.22-2.18,3.52-.47,1.74-3.05,11.3-3.08,12.26-1-.72-4.3-8.71-5.26-9.43l-4.7,9.4c-.72-.56-3.08-10.58-3.49-11.98-.97-3.46-.47-3.77-1.9-3.77-1,0-.4,.9-.16,1.87l4.23,15.53c.4,1.43,.28,1.84,.97,2.33"/><path class="f" d="M165.13,182.41c0-.87,.4-2.55,.68-3.24,3.64-8.96,16.19-5.6,16.19,2.58v1.31c0,4.01-3.89,7.91-7.91,7.91-2.61,0-5.07-.78-6.69-2.74-1.34-1.56-2.27-3.74-2.27-5.82m-1.34-.44c0,4.08,2.02,7.63,5.42,9.28,10.18,4.98,19.02-8.19,11.64-15.59-2.8-2.83-4.3-3.11-8.06-3.11-4.54,0-9,4.92-9,9.43"/><path class="f" d="M301.33,190.97h-1.31c-4.17,0-7.91-3.8-7.91-9,0-4.05,3.83-8.12,7.91-8.12,2.58,0,5.01,.62,6.72,2.71,3.02,3.61,3.02,8.09,0,11.7-.93,1.12-3.52,2.71-5.42,2.71m-10.52-9.43c0,3.21,.37,5.54,2.83,7.87,6.85,6.47,16.68,1.06,16.68-6.57,0-3.46-.5-4.79-2.71-7.41-3.21-3.8-10.33-4.05-14.13,0-1.12,1.18-2.68,3.86-2.68,6.1"/><path class="f" d="M399.38,185.93c0-6.19,4.73-5.48,8.56-5.48v10.3c-3.14,0-8.56-.06-8.56-4.82m8.56-7.03c-3.42,0-7.53-.31-9.46,3.92-.31,.65-.59,1.93-.56,2.83,.34,6.88,6.23,6.41,10.89,6.41,.53,0,.65-.16,.65-.65v-18.43c0-.81-.47-.65-1.52-.65v6.57Z"/><path class="f" d="M198.9,185.02c0,6.88,5.14,7.03,10.74,7.03,.68,0,.65-.31,.65-.87,0-2.46-9.87,2.96-9.87-6.82h9.87v-1.53h-9c1.15-4.26,9-1.18,9-3.08v-.87c-3.58,0-6.82-.47-9.28,1.71-.9,.81-2.12,2.8-2.12,4.42"/><path class="f" d="M325.89,184.59c0,2.58,.09,4.76,2.86,6.38,2.27,1.28,5.6,1.09,8.34,1.09v-1.52c-5.79,0-9.65,.78-9.65-6.16h9.65v-1.52h-9c2.12-3.18,3.55-2.4,9-2.4v-1.56c-3.39,0-6.82-.47-9.06,1.71-1,.93-2.15,2.18-2.15,3.98"/><path class="f" d="M375.69,190.75c-3.3,0-5.26-2.36-5.26-5.73,0-2.24,2.37-4.82,4.61-4.82h1.09c3.67,0,6.79,5.23,3.24,8.96-.87,.93-1.9,1.59-3.67,1.59m-6.79-5.48c0,3.52,2.8,6.79,6.35,6.79h1.09c2.8,0,5.95-3.14,5.95-5.91,0-3.08-1.06-5.67-3.89-6.88-3.61-1.56-7.35,.13-8.84,3.36-.22,.47-.65,1.99-.65,2.65"/><path class="f" d="M235.75,185.27c0-6.51,10.52-7.03,10.52,.22,0,6.85-10.52,7.22-10.52-.22m-1.31-.68c0,2.58-.06,3.61,2.02,5.67,1.59,1.59,2.65,1.81,4.98,1.81,2.18,0,3.33-1,4.45-2.15,5.7-5.67-2.83-15.31-9.34-9.52-.9,.81-2.12,2.58-2.12,4.2"/><path class="f" d="M312.51,184.59v6.82c0,.81,.47,.65,1.56,.65,0-3.67-.59-8.16,1.06-10.36,1.43-1.93,4.64-1.93,6.22-.44,.5,.44,1.28,1.65,1.28,2.46v8.34c2.05,0,1.53,.75,1.53-7.25,0-8.62-11.64-7.59-11.64-.22"/><path class="f" d="M185.73,184.15v7.91h1.31c0-3.21-.5-8.25,1.03-10.15,2.34-2.89,7.59-2.24,7.53,2.68v5.94c-.03,1.62-.09,1.52,1.52,1.52v-7.91c0-7.41-11.39-7.1-11.39,0"/><path class="f" d="M250.22,187.23c0,4.48,7,7.1,10.12,2.89,1.77-2.4,1.28-6.91,1.28-10.58,0-.81-.47-.65-1.52-.65v8.12c0,2.83-4.11,5.73-7.19,2.58-.75-.75-1.37-1.62-1.37-3.02v-7.69h-1.31v8.34Z"/><path class="f" d="M217.98,173.63c0,.5,.16,.65,.65,.65h5.91v17.77c.9,0,1.34,.12,1.34-.65v-17.12h5.7c.78,0,.65-.44,.65-1.31h-14.26v.65Z"/><rect class="g" x="393.9" y="172.32" width="1.31" height="19.73"/><path class="f" d="M264.48,181.97v9.87h1.31v-9c0-.68,.44-1.4,.81-1.84,.97-1.03,2.15-.81,3.8-.81v-1.31c-1.99,0-3.14-.22-4.61,.87-.53,.4-1.31,1.31-1.31,2.21"/><path class="f" d="M385.12,182.19v9.65h1.31v-8.56c0-3.36,2.65-3.08,4.61-3.08v-1.31h-2.18c-1.77,0-3.73,1.62-3.73,3.3"/><path class="f" d="M277.43,182.41c0,.5,.16,.65,.65,.65h4.82v-1.31h-4.82c-.5,0-.65,.16-.65,.65"/></g></g></g></svg>