<?xml version="1.0" encoding="UTF-8"?><svg xmlns="http://www.w3.org/2000/svg" viewBox="0 0 381.6 61.18"><defs><style>.d{fill:#fff;}.e{fill:#181819;}</style></defs><g id="a"/><g id="b"><g id="c"><path class="d" d="M86.16,59.1c-3.94,0-7.72-.57-11.32-1.7-3.61-1.13-5.55-3.42-5.34-11.65h0c2.02,1.59,4.52,2.91,7.5,3.97,2.98,1.06,6.03,1.59,9.16,1.59,2.64,0,4.78-.29,6.42-.87,1.63-.58,2.84-1.36,3.61-2.34,.77-.98,1.15-2.1,1.15-3.35,0-1.54-.55-2.78-1.66-3.71-1.11-.94-2.54-1.68-4.29-2.24-1.76-.55-3.7-1.07-5.84-1.55-2.14-.48-4.28-1.05-6.42-1.69-2.14-.65-4.09-1.49-5.84-2.52-1.76-1.03-3.19-2.42-4.29-4.15s-1.66-3.94-1.66-6.64,.73-5.25,2.2-7.54c1.47-2.28,3.7-4.11,6.71-5.48,3-1.37,6.82-2.06,11.43-2.06,3.03,0,6.03,.39,9.02,1.15,2.98,.77,4.42,3.89,4.83,10.6h0c-2.26-1.35-4.59-2.34-7-2.99-2.4-.65-4.71-.97-6.92-.97-2.6,0-4.7,.31-6.31,.94-1.61,.63-2.79,1.44-3.53,2.45-.75,1.01-1.12,2.16-1.12,3.46,0,1.54,.54,2.78,1.62,3.71,1.08,.94,2.5,1.67,4.26,2.2,1.75,.53,3.71,1.05,5.88,1.55,2.16,.5,4.32,1.07,6.46,1.7,2.14,.63,4.09,1.44,5.84,2.45,1.76,1.01,3.17,2.38,4.26,4.11,1.08,1.73,1.62,3.92,1.62,6.56s-.73,5.18-2.2,7.47c-1.47,2.28-3.71,4.11-6.74,5.48-3.03,1.37-6.85,2.06-11.47,2.06Z"/><path class="d" d="M32.52,3.98v-.02h-.01v.02L0,58.26s15.7,1.68,26.13-5.97c10.44-7.65,4.87-19.5-5.38-8.16,1.36-3.78,4.12-9.16,11.76-12.35,7.64,3.2,10.41,8.57,11.76,12.35-10.25-11.35-15.82,.5-5.38,8.16,10.44,7.65,26.13,5.97,26.13,5.97L32.52,3.98Z"/><g><path class="d" d="M230.01,10.66c2.05,0,3.86,.4,5.43,1.2,1.57,.8,2.79,2.02,3.67,3.65,.88,1.63,1.32,3.7,1.32,6.19v14.64h-4.61v-14.11c0-2.46-.58-4.32-1.73-5.57-1.15-1.25-2.77-1.87-4.85-1.87-1.54,0-2.88,.32-4.03,.96-1.15,.64-2.04,1.58-2.66,2.83-.62,1.25-.94,2.8-.94,4.66v13.11h-4.61v-14.11c0-2.46-.57-4.32-1.7-5.57-1.14-1.25-2.76-1.87-4.87-1.87-1.5,0-2.83,.32-3.98,.96-1.15,.64-2.05,1.58-2.69,2.83-.64,1.25-.96,2.8-.96,4.66v13.11h-4.61V10.9h4.42v6.77l-.72-1.73c.8-1.66,2.03-2.96,3.7-3.89,1.66-.93,3.6-1.39,5.81-1.39,2.43,0,4.53,.6,6.29,1.8,1.76,1.2,2.91,3.02,3.46,5.45l-1.87-.77c.77-1.95,2.11-3.52,4.03-4.71,1.92-1.18,4.16-1.78,6.72-1.78Z"/><path class="d" d="M249.55,45.94c-1.22,0-2.4-.2-3.55-.6s-2.14-.98-2.98-1.75l1.97-3.46c.64,.61,1.34,1.07,2.11,1.39,.77,.32,1.58,.48,2.45,.48,1.12,0,2.05-.29,2.78-.86,.74-.58,1.42-1.6,2.06-3.07l1.58-3.5,.48-.58,9.99-23.09h4.51l-12.34,27.99c-.74,1.79-1.56,3.2-2.47,4.22-.91,1.02-1.91,1.75-3,2.18-1.09,.43-2.29,.65-3.6,.65Zm6.05-8.79l-11.62-26.26h4.8l9.89,22.66-3.07,3.6Z"/><path class="d" d="M282.24,36.63c-2.11,0-4.12-.29-6.03-.86-1.9-.58-3.4-1.28-4.49-2.11l1.92-3.65c1.09,.74,2.43,1.36,4.03,1.87,1.6,.51,3.23,.77,4.9,.77,2.14,0,3.69-.3,4.63-.91,.94-.61,1.42-1.46,1.42-2.54,0-.8-.29-1.42-.86-1.87s-1.34-.78-2.28-1.01c-.94-.22-1.99-.42-3.14-.6-1.15-.18-2.3-.4-3.46-.67-1.15-.27-2.21-.66-3.17-1.15-.96-.5-1.73-1.18-2.3-2.06-.58-.88-.86-2.06-.86-3.53s.43-2.88,1.3-4.03c.86-1.15,2.09-2.04,3.67-2.66,1.58-.62,3.46-.94,5.64-.94,1.66,0,3.35,.2,5.06,.6,1.71,.4,3.11,.97,4.2,1.7l-1.97,3.65c-1.15-.77-2.35-1.3-3.6-1.58-1.25-.29-2.5-.43-3.74-.43-2.02,0-3.52,.33-4.51,.98-.99,.66-1.49,1.5-1.49,2.52,0,.86,.3,1.53,.89,1.99,.59,.46,1.36,.82,2.3,1.08,.94,.26,1.99,.47,3.14,.65,1.15,.18,2.3,.4,3.46,.67,1.15,.27,2.2,.65,3.14,1.13,.94,.48,1.71,1.15,2.3,2.02,.59,.86,.89,2.02,.89,3.46,0,1.54-.45,2.86-1.34,3.98-.9,1.12-2.16,1.99-3.79,2.62-1.63,.62-3.58,.94-5.86,.94Z"/><path class="d" d="M295.35,14.69v-3.79h16.23v3.79h-16.23Zm12.39,21.94c-2.56,0-4.55-.69-5.95-2.06-1.41-1.38-2.11-3.34-2.11-5.91V5.33h4.61V28.47c0,1.38,.34,2.43,1.03,3.17,.69,.74,1.67,1.1,2.95,1.1,1.44,0,2.64-.4,3.6-1.2l1.44,3.31c-.7,.61-1.54,1.06-2.52,1.34-.98,.29-1.99,.43-3.05,.43Z"/><path class="d" d="M321.18,6c-.9,0-1.64-.29-2.23-.86-.59-.58-.89-1.28-.89-2.11s.3-1.58,.89-2.16c.59-.58,1.34-.86,2.23-.86s1.64,.28,2.23,.84c.59,.56,.89,1.26,.89,2.09s-.29,1.59-.86,2.18c-.58,.59-1.33,.89-2.26,.89Zm-2.3,30.34V10.9h4.61v25.44h-4.61Z"/><path class="d" d="M332.27,36.34V.72h4.61V36.34h-4.61Zm3.74-6.15l.1-5.91,14.64-13.39h5.57l-11.23,11.04-2.5,2.11-6.58,6.15Zm15.7,6.15l-9.99-12.39,2.98-3.7,12.67,16.08h-5.66Z"/><path class="d" d="M368.8,36.63c-1.89,0-3.55-.32-4.97-.96-1.42-.64-2.52-1.53-3.29-2.66-.77-1.14-1.15-2.42-1.15-3.86s.33-2.62,.98-3.74c.66-1.12,1.73-2.02,3.22-2.69,1.49-.67,3.5-1.01,6.03-1.01h8.06v3.31h-7.87c-2.3,0-3.86,.38-4.66,1.15-.8,.77-1.2,1.7-1.2,2.78,0,1.25,.5,2.25,1.49,3,.99,.75,2.37,1.13,4.13,1.13s3.24-.38,4.54-1.15c1.3-.77,2.23-1.89,2.81-3.36l.91,3.17c-.61,1.5-1.68,2.7-3.22,3.58s-3.47,1.32-5.81,1.32Zm8.35-.29v-5.38l-.24-1.01v-9.17c0-1.95-.57-3.46-1.7-4.54-1.14-1.07-2.84-1.61-5.11-1.61-1.5,0-2.98,.25-4.42,.74-1.44,.5-2.66,1.16-3.65,1.99l-1.92-3.46c1.31-1.06,2.89-1.86,4.73-2.42,1.84-.56,3.77-.84,5.79-.84,3.49,0,6.18,.85,8.07,2.54,1.89,1.7,2.83,4.29,2.83,7.78v15.36h-4.37Z"/></g><g><path class="e" d="M198.18,51.14v-.64h4.63v.64h-4.63Zm3.53,7.17c-.68,0-1.2-.19-1.57-.56s-.54-.89-.54-1.54v-7.39h.74v7.32c0,.49,.12,.88,.37,1.14,.25,.27,.6,.4,1.07,.4s.89-.14,1.2-.43l.31,.52c-.2,.19-.44,.33-.72,.42-.28,.09-.57,.13-.87,.13Z"/><path class="e" d="M211.82,50.44c.63,0,1.18,.12,1.65,.36,.47,.24,.84,.61,1.1,1.1,.26,.49,.39,1.1,.39,1.82v4.53h-.74v-4.47c0-.87-.22-1.53-.66-1.99-.44-.45-1.06-.68-1.85-.68-.6,0-1.13,.12-1.57,.37s-.78,.59-1.02,1.04c-.23,.45-.35,.98-.35,1.6v4.13h-.74v-11.01h.74v5.42l-.13-.24c.24-.61,.63-1.1,1.17-1.45,.54-.35,1.21-.53,2-.53Z"/><path class="e" d="M223.84,58.3c-.78,0-1.47-.17-2.07-.5s-1.07-.8-1.41-1.4c-.34-.59-.51-1.27-.51-2.03s.16-1.45,.48-2.04c.32-.59,.76-1.05,1.33-1.39,.56-.34,1.2-.51,1.9-.51s1.33,.16,1.89,.49,1,.78,1.32,1.37,.48,1.27,.48,2.04c0,.03,0,.06,0,.1,0,.03,0,.07,0,.11h-6.84v-.58h6.44l-.3,.28c0-.6-.12-1.15-.38-1.62-.26-.48-.62-.86-1.06-1.13-.45-.27-.96-.41-1.54-.41s-1.09,.14-1.54,.41c-.45,.27-.8,.65-1.06,1.13-.26,.48-.39,1.03-.39,1.64v.13c0,.63,.14,1.2,.42,1.68,.28,.49,.67,.87,1.17,1.14,.49,.27,1.06,.41,1.69,.41,.49,0,.96-.09,1.39-.27,.43-.18,.79-.45,1.09-.82l.43,.49c-.34,.42-.76,.73-1.27,.94-.51,.21-1.06,.32-1.65,.32Z"/><path class="e" d="M240.67,58.3c-.64,0-1.24-.09-1.8-.28-.56-.19-.99-.43-1.3-.71l.34-.59c.3,.26,.69,.48,1.19,.66,.49,.18,1.03,.27,1.6,.27,.81,0,1.4-.13,1.75-.4s.53-.62,.53-1.05c0-.32-.09-.57-.27-.75-.18-.18-.43-.32-.73-.42-.31-.1-.64-.18-1.01-.24-.37-.06-.73-.14-1.1-.22s-.7-.19-1.01-.34c-.31-.15-.55-.35-.73-.62-.18-.26-.27-.61-.27-1.05,0-.4,.11-.75,.33-1.07,.22-.32,.54-.57,.98-.76s.98-.29,1.63-.29c.48,0,.97,.07,1.46,.21s.89,.32,1.19,.55l-.34,.59c-.33-.25-.69-.43-1.1-.53s-.82-.16-1.23-.16c-.75,0-1.3,.14-1.65,.42s-.53,.62-.53,1.04c0,.33,.09,.59,.27,.78,.18,.19,.43,.34,.73,.45,.31,.1,.64,.19,1.01,.25,.37,.06,.73,.14,1.1,.21,.37,.08,.7,.19,1.01,.33,.31,.14,.55,.34,.73,.59,.18,.25,.27,.59,.27,1.02s-.12,.8-.35,1.11c-.23,.32-.58,.56-1.03,.74-.45,.18-1.01,.27-1.68,.27Z"/><path class="e" d="M251.5,58.3c-.74,0-1.4-.17-1.98-.5s-1.04-.8-1.38-1.4c-.34-.59-.51-1.27-.51-2.03s.17-1.45,.51-2.04c.34-.59,.8-1.05,1.38-1.39s1.24-.51,1.98-.51,1.4,.17,1.99,.51c.58,.34,1.04,.8,1.38,1.39,.34,.59,.5,1.27,.5,2.04s-.17,1.44-.5,2.03c-.34,.59-.8,1.06-1.38,1.4-.58,.34-1.25,.5-1.99,.5Zm0-.67c.59,0,1.13-.14,1.6-.41,.48-.27,.85-.66,1.11-1.15s.4-1.06,.4-1.71-.13-1.22-.4-1.71-.64-.87-1.11-1.14c-.47-.27-1.01-.41-1.6-.41s-1.13,.14-1.6,.41c-.47,.27-.84,.65-1.11,1.14s-.41,1.06-.41,1.71,.14,1.21,.41,1.71,.64,.88,1.11,1.15,1,.41,1.6,.41Z"/><path class="e" d="M263.49,58.3c-.66,0-1.24-.12-1.72-.36-.49-.24-.86-.61-1.12-1.1-.26-.49-.39-1.1-.39-1.82v-4.53h.74v4.47c0,.87,.22,1.53,.67,1.99,.45,.46,1.07,.68,1.89,.68,.58,0,1.09-.12,1.51-.37,.43-.25,.75-.6,.98-1.05,.23-.45,.34-.98,.34-1.6v-4.13h.74v7.75h-.71v-2.15l.1,.25c-.23,.6-.61,1.08-1.14,1.43s-1.16,.53-1.89,.53Z"/><path class="e" d="M272.94,58.24v-11.01h.74v11.01h-.74Z"/><path class="e" d="M289,58.3c-.74,0-1.4-.17-1.98-.5s-1.04-.8-1.38-1.4c-.34-.59-.51-1.27-.51-2.03s.17-1.45,.51-2.04c.34-.59,.8-1.05,1.38-1.39s1.24-.51,1.98-.51,1.4,.17,1.99,.51c.58,.34,1.04,.8,1.38,1.39,.34,.59,.5,1.27,.5,2.04s-.17,1.44-.5,2.03c-.34,.59-.8,1.06-1.38,1.4-.58,.34-1.25,.5-1.99,.5Zm0-.67c.59,0,1.13-.14,1.6-.41,.48-.27,.85-.66,1.11-1.15s.4-1.06,.4-1.71-.13-1.22-.4-1.71-.64-.87-1.11-1.14c-.47-.27-1.01-.41-1.6-.41s-1.13,.14-1.6,.41c-.47,.27-.84,.65-1.11,1.14s-.41,1.06-.41,1.71,.14,1.21,.41,1.71,.64,.88,1.11,1.15,1,.41,1.6,.41Z"/><path class="e" d="M296.57,51.14v-.64h4.63v.64h-4.63Zm1.42,7.11v-8.93c0-.64,.18-1.16,.56-1.55,.37-.39,.9-.59,1.6-.59,.29,0,.57,.04,.85,.13,.28,.08,.5,.21,.68,.38l-.3,.56c-.15-.15-.33-.26-.53-.33-.21-.07-.43-.1-.67-.1-.47,0-.84,.13-1.08,.39-.25,.26-.37,.65-.37,1.16v1.31l.02,.36v7.21h-.74Z"/><path class="e" d="M310.59,61.18c-.31,0-.6-.04-.89-.13-.29-.08-.52-.22-.71-.39l.3-.55c.33,.29,.75,.43,1.26,.43,.45,0,.79-.13,1.03-.4,.24-.27,.36-.65,.36-1.16v-8.49h.74v8.52c0,.65-.18,1.18-.54,1.57s-.88,.59-1.55,.59Zm1.72-12.57c-.17,0-.31-.06-.43-.18-.12-.12-.18-.26-.18-.42,0-.17,.06-.31,.18-.43,.12-.12,.26-.18,.43-.18,.18,0,.32,.06,.44,.17,.11,.11,.17,.26,.17,.42s-.06,.31-.17,.43c-.11,.12-.26,.18-.44,.18Z"/><path class="e" d="M321.52,58.3c-.74,0-1.4-.17-1.98-.5s-1.04-.8-1.38-1.4c-.34-.59-.51-1.27-.51-2.03s.17-1.45,.51-2.04c.34-.59,.8-1.05,1.38-1.39s1.24-.51,1.98-.51,1.4,.17,1.99,.51c.58,.34,1.04,.8,1.38,1.39,.34,.59,.5,1.27,.5,2.04s-.17,1.44-.5,2.03c-.34,.59-.8,1.06-1.38,1.4-.58,.34-1.25,.5-1.99,.5Zm0-.67c.59,0,1.13-.14,1.6-.41,.48-.27,.85-.66,1.11-1.15s.4-1.06,.4-1.71-.13-1.22-.4-1.71-.64-.87-1.11-1.14c-.47-.27-1.01-.41-1.6-.41s-1.13,.14-1.6,.41c-.47,.27-.84,.65-1.11,1.14s-.41,1.06-.41,1.71,.14,1.21,.41,1.71,.64,.88,1.11,1.15,1,.41,1.6,.41Z"/><path class="e" d="M333.51,58.3c-.66,0-1.24-.12-1.72-.36-.49-.24-.86-.61-1.12-1.1-.26-.49-.39-1.1-.39-1.82v-4.53h.74v4.47c0,.87,.22,1.53,.67,1.99,.45,.46,1.07,.68,1.89,.68,.58,0,1.09-.12,1.51-.37,.43-.25,.75-.6,.98-1.05,.23-.45,.34-.98,.34-1.6v-4.13h.74v7.75h-.71v-2.15l.1,.25c-.23,.6-.61,1.08-1.14,1.43s-1.16,.53-1.89,.53Z"/><path class="e" d="M342.96,58.24v-7.75h.71v2.12l-.07-.24c.22-.62,.58-1.1,1.1-1.44s1.16-.51,1.93-.51v.73s-.06,0-.09,0c-.03,0-.06,0-.09,0-.86,0-1.53,.27-2.02,.81-.49,.54-.73,1.29-.73,2.25v4.04h-.74Z"/><path class="e" d="M355.13,50.44c.63,0,1.18,.12,1.65,.36,.47,.24,.84,.61,1.1,1.1,.26,.49,.39,1.1,.39,1.82v4.53h-.74v-4.47c0-.87-.22-1.53-.66-1.99-.44-.45-1.06-.68-1.85-.68-.6,0-1.13,.12-1.57,.37s-.78,.59-1.02,1.04c-.23,.45-.35,.98-.35,1.6v4.13h-.74v-7.75h.71v2.15l-.1-.24c.24-.61,.63-1.1,1.17-1.45,.54-.35,1.21-.53,2-.53Z"/><path class="e" d="M367.15,58.3c-.78,0-1.47-.17-2.07-.5s-1.07-.8-1.41-1.4c-.34-.59-.51-1.27-.51-2.03s.16-1.45,.48-2.04c.32-.59,.76-1.05,1.33-1.39,.56-.34,1.2-.51,1.9-.51s1.33,.16,1.89,.49,1,.78,1.32,1.37,.48,1.27,.48,2.04c0,.03,0,.06,0,.1,0,.03,0,.07,0,.11h-6.84v-.58h6.44l-.3,.28c0-.6-.12-1.15-.38-1.62-.26-.48-.62-.86-1.06-1.13-.45-.27-.96-.41-1.54-.41s-1.09,.14-1.54,.41c-.45,.27-.8,.65-1.06,1.13-.26,.48-.39,1.03-.39,1.64v.13c0,.63,.14,1.2,.42,1.68,.28,.49,.67,.87,1.17,1.14,.49,.27,1.06,.41,1.69,.41,.49,0,.96-.09,1.39-.27,.43-.18,.79-.45,1.09-.82l.43,.49c-.34,.42-.76,.73-1.27,.94-.51,.21-1.06,.32-1.65,.32Z"/><path class="e" d="M375.21,61.18c-.36,0-.69-.06-1-.18-.31-.12-.58-.29-.79-.52l.37-.56c.2,.21,.41,.36,.65,.46,.23,.1,.5,.15,.79,.15,.36,0,.67-.1,.94-.3s.53-.56,.76-1.08l.53-1.19,.1-.13,3.28-7.33h.76l-3.98,8.8c-.21,.48-.43,.85-.68,1.12s-.51,.47-.79,.59c-.29,.12-.6,.18-.95,.18Zm2.24-2.75l-3.59-7.94h.79l3.27,7.29-.46,.65Z"/></g><path class="d" d="M118.18,7.9V58.41h9.38V20.68c0-11.29-9.38-12.78-9.38-12.78Z"/><path class="d" d="M183.98,48.14h0l-16.29-36.09c-.37-.83-1.2-1.36-2.11-1.36h-5.73c-.91,0-1.74,.54-2.12,1.37l-16.24,36.08h0l-4.62,10.27s7.78,.44,11.4-5.3c1.22-2.86,2.13-4.97,2.13-4.97h0l.33-.77h23.87l.33,.77h0s1.04,2.41,2.26,5.27c2.52,4,7.06,4.85,9.59,5h1.83l-4.64-10.27Zm-30.26-7.73l8.94-20.89,8.97,20.89h-17.91Z"/></g></g></svg>