<svg xmlns="http://www.w3.org/2000/svg" viewBox="0 0 381.6 61.18">
                        <defs>
                            <style>
                                .cls-1 {
                                    fill: #f15a22;
                                }

                                .cls-2 {
                                    fill: #000;
                                }
                            </style>
                        </defs>
                        <g id="Layer_2" data-name="Layer 2"><g id="Layer_1-2" data-name="Layer 1"><path class="cls-1" d="M86.16,59.1a37.61,37.61,0,0,1-11.32-1.7C71.23,56.27,69.28,54,69.5,45.75h0a26.26,26.26,0,0,0,7.5,4,27.13,27.13,0,0,0,9.16,1.59,19.65,19.65,0,0,0,6.42-.87,7.77,7.77,0,0,0,3.61-2.34,5.33,5.33,0,0,0,1.15-3.36A4.61,4.61,0,0,0,95.68,41a12.24,12.24,0,0,0-4.29-2.24c-1.76-.55-3.7-1.07-5.84-1.55s-4.28-1.05-6.42-1.69A26.41,26.41,0,0,1,73.29,33,12.64,12.64,0,0,1,69,28.87a12.16,12.16,0,0,1-1.66-6.63,13.72,13.72,0,0,1,2.2-7.54,15.23,15.23,0,0,1,6.71-5.48A27.66,27.66,0,0,1,87.67,7.16a35.94,35.94,0,0,1,9,1.16c3,.77,4.42,3.89,4.83,10.6h0a27.7,27.7,0,0,0-7-3,26.61,26.61,0,0,0-6.93-1,17.86,17.86,0,0,0-6.31.94,7.71,7.71,0,0,0-3.53,2.45,5.66,5.66,0,0,0-1.12,3.46,4.69,4.69,0,0,0,1.62,3.72,11.41,11.41,0,0,0,4.26,2.2q2.63.8,5.88,1.55T94.85,31a26.27,26.27,0,0,1,5.84,2.45A12,12,0,0,1,105,37.53a12.2,12.2,0,0,1,1.62,6.56,13.53,13.53,0,0,1-2.2,7.47A15.1,15.1,0,0,1,97.63,57,27.89,27.89,0,0,1,86.16,59.1Z"></path><path class="cls-1" d="M32.52,4V4h0V4L0,58.26s15.7,1.68,26.13-6S31,32.78,20.75,44.13A20,20,0,0,1,32.52,31.78,20,20,0,0,1,44.28,44.13C34,32.78,28.46,44.64,38.9,52.29s26.13,6,26.13,6Z"></path><path class="cls-2" d="M230,10.66a11.8,11.8,0,0,1,5.43,1.2,8.51,8.51,0,0,1,3.67,3.65,12.93,12.93,0,0,1,1.32,6.19V36.34h-4.61V22.23a8,8,0,0,0-1.73-5.57,6.26,6.26,0,0,0-4.85-1.87,8.17,8.17,0,0,0-4,1,6.48,6.48,0,0,0-2.67,2.83,10.43,10.43,0,0,0-.93,4.66v13.1H217V22.23a8.05,8.05,0,0,0-1.7-5.57,6.27,6.27,0,0,0-4.88-1.87,8.06,8.06,0,0,0-4,1,6.58,6.58,0,0,0-2.69,2.83,10.15,10.15,0,0,0-1,4.66v13.1h-4.61V10.9h4.42v6.77l-.72-1.73a8.67,8.67,0,0,1,3.69-3.89,11.72,11.72,0,0,1,5.81-1.39,10.9,10.9,0,0,1,6.29,1.8,8.54,8.54,0,0,1,3.46,5.45l-1.87-.77a9.57,9.57,0,0,1,4-4.71A12.57,12.57,0,0,1,230,10.66Z"></path><path class="cls-2" d="M249.55,45.94a10.72,10.72,0,0,1-3.55-.6,8.28,8.28,0,0,1-3-1.75l2-3.46a6.87,6.87,0,0,0,2.11,1.4,6.33,6.33,0,0,0,2.45.48,4.34,4.34,0,0,0,2.78-.87,7.76,7.76,0,0,0,2.07-3.07l1.58-3.5.48-.58,10-23.09H271l-12.34,28a14.63,14.63,0,0,1-2.47,4.22,8,8,0,0,1-3,2.19A9.73,9.73,0,0,1,249.55,45.94Zm6-8.78L244,10.9h4.8l9.89,22.66Z"></path><path class="cls-2" d="M282.24,36.63a20.86,20.86,0,0,1-6-.86,14,14,0,0,1-4.49-2.12L273.65,30a15.57,15.57,0,0,0,4,1.88,16.08,16.08,0,0,0,4.9.77,8.84,8.84,0,0,0,4.63-.92,2.84,2.84,0,0,0,1.42-2.54,2.23,2.23,0,0,0-.87-1.87,5.73,5.73,0,0,0-2.28-1c-.94-.23-2-.43-3.14-.6s-2.3-.4-3.46-.67a14,14,0,0,1-3.17-1.16,5.94,5.94,0,0,1-2.3-2.06,6.34,6.34,0,0,1-.86-3.53,6.54,6.54,0,0,1,1.29-4,8.33,8.33,0,0,1,3.67-2.67,15.52,15.52,0,0,1,5.65-.93,22.18,22.18,0,0,1,5.06.6,12.74,12.74,0,0,1,4.2,1.7l-2,3.65a10.63,10.63,0,0,0-3.6-1.58,16.47,16.47,0,0,0-3.74-.44,8.22,8.22,0,0,0-4.51,1,2.91,2.91,0,0,0-1.49,2.52,2.38,2.38,0,0,0,.88,2,6.28,6.28,0,0,0,2.31,1.08,28.31,28.31,0,0,0,3.14.65c1.16.18,2.31.4,3.46.67a14.12,14.12,0,0,1,3.15,1.13,5.63,5.63,0,0,1,3.19,5.47,6.17,6.17,0,0,1-1.35,4,8.62,8.62,0,0,1-3.79,2.61A16.26,16.26,0,0,1,282.24,36.63Z"></path><path class="cls-2" d="M295.35,14.69V10.9h16.23v3.79Zm12.39,21.94a8.19,8.19,0,0,1-6-2.06,7.89,7.89,0,0,1-2.11-5.91V5.33h4.61V28.47a4.46,4.46,0,0,0,1,3.17,3.86,3.86,0,0,0,2.95,1.1,5.43,5.43,0,0,0,3.6-1.2l1.44,3.31a6.65,6.65,0,0,1-2.52,1.35A10.59,10.59,0,0,1,307.74,36.63Z"></path><path class="cls-2" d="M321.18,6A3.08,3.08,0,0,1,319,5.14,2.82,2.82,0,0,1,318.06,3,2.87,2.87,0,0,1,319,.86,3.08,3.08,0,0,1,321.18,0a3.12,3.12,0,0,1,2.23.84,2.77,2.77,0,0,1,.89,2.09A3,3,0,0,1,321.18,6Zm-2.31,30.34V10.9h4.61V36.34Z"></path><path class="cls-2" d="M332.27,36.34V.72h4.61V36.34ZM336,30.2l.1-5.91L350.75,10.9h5.57l-11.23,11-2.5,2.11Zm15.7,6.14L341.73,24l3-3.7,12.68,16.08Z"></path><path class="cls-2" d="M368.8,36.63a12,12,0,0,1-5-1A7.69,7.69,0,0,1,360.54,33a6.83,6.83,0,0,1-1.15-3.87,7.24,7.24,0,0,1,1-3.74,6.75,6.75,0,0,1,3.21-2.69,14.94,14.94,0,0,1,6-1h8.06V25h-7.87c-2.3,0-3.86.39-4.66,1.15A3.73,3.73,0,0,0,364,29a3.58,3.58,0,0,0,1.49,3,6.71,6.71,0,0,0,4.13,1.13,8.83,8.83,0,0,0,4.54-1.15,6.6,6.6,0,0,0,2.81-3.37l.91,3.17a7.15,7.15,0,0,1-3.22,3.58A11.56,11.56,0,0,1,368.8,36.63Zm8.36-.29V31l-.24-1V20.79a5.93,5.93,0,0,0-1.71-4.54,7.22,7.22,0,0,0-5.11-1.61,13.37,13.37,0,0,0-4.42.75,11.29,11.29,0,0,0-3.65,2l-1.92-3.46a14,14,0,0,1,4.73-2.42,19.78,19.78,0,0,1,5.79-.84q5.22,0,8.06,2.54T381.52,21V36.34Z"></path><path class="cls-2" d="M198.18,51.14V50.5h4.63v.64Zm3.53,7.16a2,2,0,0,1-1.56-.56,2.14,2.14,0,0,1-.54-1.54V48.81h.74v7.31a1.58,1.58,0,0,0,.37,1.14,1.38,1.38,0,0,0,1.07.41,1.72,1.72,0,0,0,1.2-.44l.31.52a1.85,1.85,0,0,1-.72.42A2.82,2.82,0,0,1,201.71,58.3Z"></path><path class="cls-2" d="M211.82,50.44a3.58,3.58,0,0,1,1.65.36,2.54,2.54,0,0,1,1.1,1.1,3.86,3.86,0,0,1,.39,1.82v4.52h-.74V53.78a2.75,2.75,0,0,0-.66-2,2.42,2.42,0,0,0-1.84-.68,3.18,3.18,0,0,0-1.58.37,2.41,2.41,0,0,0-1,1,3.29,3.29,0,0,0-.35,1.6v4.12H208v-11h.75v5.42l-.14-.24A3,3,0,0,1,209.82,51,3.61,3.61,0,0,1,211.82,50.44Z"></path><path class="cls-2" d="M223.84,58.3a4.12,4.12,0,0,1-2.07-.5,3.65,3.65,0,0,1-1.41-1.4,4,4,0,0,1-.51-2,4.21,4.21,0,0,1,.48-2,3.56,3.56,0,0,1,1.33-1.39,3.69,3.69,0,0,1,1.9-.5,3.65,3.65,0,0,1,1.89.49,3.42,3.42,0,0,1,1.32,1.37,4.21,4.21,0,0,1,.48,2,.38.38,0,0,1,0,.1v.11H220.4V54h6.44l-.3.28a3.23,3.23,0,0,0-.38-1.62,2.86,2.86,0,0,0-2.6-1.54,2.93,2.93,0,0,0-1.54.41A2.89,2.89,0,0,0,221,52.63a3.37,3.37,0,0,0-.39,1.64v.13a3.37,3.37,0,0,0,.43,1.69,3,3,0,0,0,1.16,1.14,3.49,3.49,0,0,0,1.69.41,3.55,3.55,0,0,0,1.39-.27,2.67,2.67,0,0,0,1.09-.82l.43.49a3.07,3.07,0,0,1-1.27.94A4.11,4.11,0,0,1,223.84,58.3Z"></path><path class="cls-2" d="M240.67,58.3a5.58,5.58,0,0,1-1.81-.28,3.49,3.49,0,0,1-1.29-.71l.34-.59a4.06,4.06,0,0,0,1.18.66,4.69,4.69,0,0,0,1.61.27,3,3,0,0,0,1.75-.4,1.27,1.27,0,0,0,.53-1,1,1,0,0,0-.27-.75A1.73,1.73,0,0,0,242,55a7.91,7.91,0,0,0-1-.24l-1.09-.22a4.28,4.28,0,0,1-1-.34,1.93,1.93,0,0,1-.74-.61,1.84,1.84,0,0,1-.27-1,1.9,1.9,0,0,1,.32-1.07,2.33,2.33,0,0,1,1-.76,4,4,0,0,1,1.64-.29,5.31,5.31,0,0,1,1.46.21,3.37,3.37,0,0,1,1.19.55l-.34.59a3.14,3.14,0,0,0-1.1-.54,5.06,5.06,0,0,0-1.23-.16,2.63,2.63,0,0,0-1.65.42,1.27,1.27,0,0,0-.53,1,1.08,1.08,0,0,0,.27.77,1.72,1.72,0,0,0,.74.45,6.78,6.78,0,0,0,1,.25l1.1.22a5.2,5.2,0,0,1,1,.33,1.85,1.85,0,0,1,.73.59,1.76,1.76,0,0,1,.28,1,1.81,1.81,0,0,1-.35,1.11,2.3,2.3,0,0,1-1,.75A4.76,4.76,0,0,1,240.67,58.3Z"></path><path class="cls-2" d="M251.5,58.3a3.84,3.84,0,0,1-2-.5,3.71,3.71,0,0,1-1.38-1.4,4.32,4.32,0,0,1,0-4.07,3.76,3.76,0,0,1,1.38-1.39,4.19,4.19,0,0,1,4,0,3.76,3.76,0,0,1,1.38,1.39,4.39,4.39,0,0,1,0,4.07,3.71,3.71,0,0,1-1.38,1.4A3.87,3.87,0,0,1,251.5,58.3Zm0-.66a3.17,3.17,0,0,0,1.6-.41,2.88,2.88,0,0,0,1.12-1.15,3.66,3.66,0,0,0,.4-1.71,3.6,3.6,0,0,0-.4-1.71,3,3,0,0,0-1.12-1.15,3.17,3.17,0,0,0-1.6-.4,3.13,3.13,0,0,0-1.59.4,3.09,3.09,0,0,0-1.12,1.15,3.49,3.49,0,0,0-.41,1.71,3.54,3.54,0,0,0,.41,1.71,3,3,0,0,0,1.12,1.15A3.14,3.14,0,0,0,251.5,57.64Z"></path><path class="cls-2" d="M263.49,58.3a3.83,3.83,0,0,1-1.72-.36,2.53,2.53,0,0,1-1.12-1.1,3.83,3.83,0,0,1-.39-1.82V50.5H261V55a2.69,2.69,0,0,0,.67,2,2.48,2.48,0,0,0,1.88.69,2.92,2.92,0,0,0,1.51-.38,2.35,2.35,0,0,0,1-1,3.47,3.47,0,0,0,.35-1.6V50.5h.74v7.74h-.71V56.09l.1.25a2.91,2.91,0,0,1-1.14,1.44A3.35,3.35,0,0,1,263.49,58.3Z"></path><path class="cls-2" d="M272.94,58.24v-11h.75v11Z"></path><path class="cls-2" d="M289,58.3a3.84,3.84,0,0,1-2-.5,3.71,3.71,0,0,1-1.38-1.4,4.32,4.32,0,0,1,0-4.07A3.76,3.76,0,0,1,287,50.94a4.19,4.19,0,0,1,4,0,3.76,3.76,0,0,1,1.38,1.39,4.39,4.39,0,0,1,0,4.07A3.71,3.71,0,0,1,291,57.8,3.87,3.87,0,0,1,289,58.3Zm0-.66a3.15,3.15,0,0,0,1.6-.41,2.88,2.88,0,0,0,1.12-1.15,3.66,3.66,0,0,0,.4-1.71,3.6,3.6,0,0,0-.4-1.71,3,3,0,0,0-1.12-1.15,3.38,3.38,0,0,0-3.19,0,3.09,3.09,0,0,0-1.12,1.15,3.48,3.48,0,0,0-.4,1.71,3.54,3.54,0,0,0,.4,1.71,3,3,0,0,0,1.12,1.15A3.14,3.14,0,0,0,289,57.64Z"></path><path class="cls-2" d="M296.57,51.14V50.5h4.63v.64Zm1.43,7.1V49.31a2.16,2.16,0,0,1,.55-1.55,2.1,2.1,0,0,1,1.6-.59,3,3,0,0,1,.84.13,1.65,1.65,0,0,1,.69.38l-.3.56a1.24,1.24,0,0,0-.54-.32,2,2,0,0,0-.66-.11,1.44,1.44,0,0,0-1.09.39,1.71,1.71,0,0,0-.37,1.17v1.31l0,.35v7.21Z"></path><path class="cls-2" d="M310.59,61.18a3.35,3.35,0,0,1-.89-.12,1.83,1.83,0,0,1-.71-.4l.3-.55a1.82,1.82,0,0,0,1.26.43,1.31,1.31,0,0,0,1-.4,1.65,1.65,0,0,0,.36-1.15V50.5h.75V59a2.21,2.21,0,0,1-.55,1.57A2,2,0,0,1,310.59,61.18Zm1.73-12.57a.57.57,0,0,1-.43-.18.54.54,0,0,1-.18-.41.58.58,0,0,1,.18-.43.57.57,0,0,1,.43-.18.6.6,0,0,1,.43.17.57.57,0,0,1,.17.42.56.56,0,0,1-.17.43A.57.57,0,0,1,312.32,48.61Z"></path><path class="cls-2" d="M321.52,58.3a3.72,3.72,0,0,1-3.37-1.9,4.32,4.32,0,0,1,0-4.07,4,4,0,0,1,5.35-1.39,3.61,3.61,0,0,1,1.38,1.39,4.32,4.32,0,0,1,0,4.07,3.57,3.57,0,0,1-1.38,1.4A3.84,3.84,0,0,1,321.52,58.3Zm0-.66a3.2,3.2,0,0,0,1.6-.41,2.93,2.93,0,0,0,1.11-1.15,3.54,3.54,0,0,0,.4-1.71,3.48,3.48,0,0,0-.4-1.71,3,3,0,0,0-1.11-1.15,3.19,3.19,0,0,0-1.6-.4,3.14,3.14,0,0,0-1.6.4,3,3,0,0,0-1.11,1.15,3.49,3.49,0,0,0-.41,1.71,3.54,3.54,0,0,0,.41,1.71,2.93,2.93,0,0,0,1.11,1.15A3.15,3.15,0,0,0,321.52,57.64Z"></path><path class="cls-2" d="M333.51,58.3a3.8,3.8,0,0,1-1.72-.36,2.48,2.48,0,0,1-1.12-1.1,3.71,3.71,0,0,1-.4-1.82V50.5H331V55a2.73,2.73,0,0,0,.67,2,2.52,2.52,0,0,0,1.89.69,2.94,2.94,0,0,0,1.51-.38,2.4,2.4,0,0,0,1-1,3.47,3.47,0,0,0,.34-1.6V50.5h.74v7.74h-.71V56.09l.1.25a2.84,2.84,0,0,1-1.13,1.44A3.35,3.35,0,0,1,333.51,58.3Z"></path><path class="cls-2" d="M343,58.24V50.5h.71v2.12l-.07-.24a2.76,2.76,0,0,1,1.1-1.44,3.48,3.48,0,0,1,1.93-.5v.73h-.18a2.57,2.57,0,0,0-2,.81,3.22,3.22,0,0,0-.73,2.25v4Z"></path><path class="cls-2" d="M355.13,50.44a3.58,3.58,0,0,1,1.65.36,2.54,2.54,0,0,1,1.1,1.1,3.86,3.86,0,0,1,.39,1.82v4.52h-.74V53.78a2.75,2.75,0,0,0-.66-2,2.42,2.42,0,0,0-1.84-.68,3.18,3.18,0,0,0-1.58.37,2.41,2.41,0,0,0-1,1,3.29,3.29,0,0,0-.35,1.6v4.12h-.75V50.5h.72v2.15l-.11-.24A3,3,0,0,1,353.13,51,3.61,3.61,0,0,1,355.13,50.44Z"></path><path class="cls-2" d="M367.15,58.3a4.12,4.12,0,0,1-2.07-.5,3.65,3.65,0,0,1-1.41-1.4,4,4,0,0,1-.51-2,4.21,4.21,0,0,1,.48-2A3.56,3.56,0,0,1,365,50.94a3.69,3.69,0,0,1,1.9-.5,3.65,3.65,0,0,1,1.89.49,3.42,3.42,0,0,1,1.32,1.37,4.21,4.21,0,0,1,.48,2v.1a.37.37,0,0,0,0,.11h-6.84V54h6.44l-.3.28a3.23,3.23,0,0,0-.38-1.62,2.86,2.86,0,0,0-2.6-1.54,2.93,2.93,0,0,0-1.54.41,2.89,2.89,0,0,0-1.06,1.13,3.37,3.37,0,0,0-.39,1.64v.13a3.37,3.37,0,0,0,.43,1.69,3,3,0,0,0,1.16,1.14,3.49,3.49,0,0,0,1.69.41,3.55,3.55,0,0,0,1.39-.27,2.67,2.67,0,0,0,1.09-.82l.43.49a3.07,3.07,0,0,1-1.27.94A4.11,4.11,0,0,1,367.15,58.3Z"></path><path class="cls-2" d="M375.21,61.18a2.73,2.73,0,0,1-1-.18,2,2,0,0,1-.8-.52l.37-.56a1.88,1.88,0,0,0,1.44.61,1.53,1.53,0,0,0,.94-.3,2.68,2.68,0,0,0,.77-1.08l.53-1.19.11-.13,3.28-7.33h.75l-4,8.8a4.41,4.41,0,0,1-.68,1.12,2.12,2.12,0,0,1-.79.58A2.47,2.47,0,0,1,375.21,61.18Zm2.24-2.74-3.59-7.94h.78l3.27,7.28Z"></path><path class="cls-1" d="M118.18,7.9V58.41h9.38V20.68C127.56,9.39,118.18,7.9,118.18,7.9Z"></path><path class="cls-1" d="M184,48.14h0L167.7,12.05a2.31,2.31,0,0,0-2.11-1.36h-5.73a2.34,2.34,0,0,0-2.12,1.37L141.51,48.14h0l-4.62,10.27s7.78.45,11.4-5.3l2.13-5h0l.33-.77h23.87l.33.77h0l2.26,5.27c2.52,4,7.06,4.85,9.59,5h1.83Zm-30.26-7.72,8.94-20.89,9,20.89Z"></path></g></g>
                    </svg>