<svg xmlns="http://www.w3.org/2000/svg" xmlns:xlink="http://www.w3.org/1999/xlink" version="1.1" id="Layer_1" x="0px" y="0px" viewBox="0 0 566.9 248.6" style="enable-background:new 0 0 566.9 248.6;" xml:space="preserve">
<style type="text/css">
    .st0 {
        fill: #fff;
    }

    .st1 {
        fill: #fff;
    }

    .st2 {
        fill: #fff;
    }

    .st3 {
        fill: #fff;
    }
</style>
<g>
                            <polygon class="st0" points="135.1,49.3 168.7,58.9 248,6.9  "></polygon>
                            <polygon class="st0" points="213.8,87.1 248,6.9 180.4,63.4  "></polygon>
                            <polygon class="st1" points="248,6.9 168.7,58.9 178.3,83.8 180.4,63.4  "></polygon>
                            <polygon class="st2" points="180.4,63.4 178.3,83.8 195,73.8  "></polygon>
                            <path class="st0" d="M53.6,73.6c0,0-3.9,24.6,3.9,49c0,0,7.5,35.2,45.1,23.4c0,0,24.3-5.4,56.2-46.6c0,0-14.8-24.6-53.1-34.3   c0,0-22.7-3.9-42.4,3.5c-0.1,0.1-0.3,0.1-0.4,0.2C59.7,70.1,54.7,71.5,53.6,73.6z"></path>
                            <path class="st0" d="M160.1,101.3c0,0-17.5,35.3-33.1,53.1c0,0-19.4,23.8-37.8,32.6c0,0-24.4,17.2-42.7-3.6c0,0-8.5-7.9-11.2-32.8   c0,0-2.5-35.3,10.7-73.6c0,0-26.3,17-34.5,43.5c0,0-10.4,25.2,0,58c0,0,4.6,20.5,27.2,37.4c0,0,18.8,14.2,44.8,16.5   c0,0,27.6,4.4,56.9-16.4c0,0,25.4-17.2,32.6-51.2C172.9,164.8,181.4,132,160.1,101.3z"></path>
                            <path class="st3" d="M190.1,193.8v-65.1h17.2v65.1H190.1z M206.9,113.5c0,4.7-3.8,8.5-8.5,8.5s-8.5-3.8-8.5-8.5s3.8-8.5,8.5-8.5   S206.9,108.8,206.9,113.5z"></path>
                            <path class="st3" d="M291.3,166.4h-54c1.2,4,3.5,7.3,6.9,9.7c3.4,2.4,7.2,3.6,11.4,3.6c3.2,0,6.2-0.5,9-1.6c2.8-1.1,5-2.6,6.6-4.4   h18.4c-2.1,6.2-6.3,11.5-12.7,15.9c-6.4,4.3-13.3,6.5-20.6,6.5c-10,0-18.7-3.6-25.9-10.7c-3.6-3.6-6.2-7.5-8-11.8   c-1.8-4.3-2.7-9-2.7-14.1c0-10.3,3.6-19.1,10.7-26.5c7.1-7.4,15.9-11,26.3-11c9.8,0,18.2,3.6,25.1,10.9c7,7.2,10.4,15.8,10.4,25.6   c0,0.8,0,1.6,0,2.4c-0.1,0.7-0.2,1.2-0.2,1.5L291.3,166.4z M237.1,151.6h38.3c-1.3-4-3.8-7.2-7.2-9.6c-3.5-2.4-7.4-3.6-11.7-3.6   c-4.2,0-8.2,1.2-11.9,3.7C240.8,144.5,238.3,147.7,237.1,151.6z"></path>
                            <path class="st3" d="M335.1,128.7v13.7h-11.8v26.2c0,5.3,0.1,8.4,0.3,9.3c0.2,0.9,0.7,1.6,1.5,2.2c0.8,0.6,1.8,0.9,2.9,0.9   c1.6,0,3.9-0.5,6.9-1.7l1.5,13.4c-4,1.7-8.5,2.6-13.6,2.6c-3.1,0-5.9-0.5-8.4-1.6c-2.5-1-4.3-2.4-5.5-4c-1.2-1.7-2-3.9-2.4-6.7   c-0.4-2-0.6-6-0.6-12.1v-28.4h-7.9v-13.7h7.9v-23l17.3,0v23H335.1z"></path>
                            <path class="st3" d="M428.1,193.8h-19.7l-7.8-20.4h-35.9l-7.4,20.4H338l35-89.8h19.2L428.1,193.8z M394.7,158.2l-12.4-33.3   l-12.1,33.3H394.7z"></path>
                            <path class="st3" d="M437.2,193.8V104h18.1v89.8H437.2z"></path>
                            <path class="st3" d="M472.7,193.8V104h38.2c9.6,0,16.6,0.8,20.9,2.4c4.4,1.6,7.8,4.5,10.4,8.6c2.6,4.1,3.9,8.8,3.9,14.2   c0,6.7-2,12.3-5.9,16.7c-4,4.4-9.9,7.2-17.8,8.3c3.9,2.3,7.2,4.8,9.7,7.5c2.6,2.7,6,7.6,10.3,14.6l11,17.5h-21.7l-13.1-19.5   c-4.7-7-7.8-11.4-9.6-13.2c-1.7-1.8-3.5-3.1-5.5-3.7c-1.9-0.7-5-1-9.1-1h-3.7v37.5H472.7z M490.8,141.9h13.4   c8.7,0,14.1-0.4,16.3-1.1c2.2-0.7,3.9-2,5.1-3.8c1.2-1.8,1.8-4,1.8-6.7c0-3-0.8-5.5-2.4-7.3c-1.6-1.9-3.9-3-6.8-3.5   c-1.5-0.2-5.9-0.3-13.2-0.3h-14.2V141.9z"></path>
</g>
</svg>