<svg width="48" height="48" viewBox="0 0 48 48" fill="none" xmlns="http://www.w3.org/2000/svg">
<path d="M41.94 12.4034L25.44 3.37528C24.9991 3.13168 24.5037 3.00391 24 3.00391C23.4963 3.00391 23.0009 3.13168 22.56 3.37528L6.06 12.4072C5.58879 12.665 5.19544 13.0446 4.92103 13.5063C4.64663 13.9681 4.50122 14.495 4.5 15.0322V32.9647C4.50122 33.5018 4.64663 34.0287 4.92103 34.4905C5.19544 34.9522 5.58879 35.3318 6.06 35.5897L22.56 44.6215C23.0009 44.8651 23.4963 44.9929 24 44.9929C24.5037 44.9929 24.9991 44.8651 25.44 44.6215L41.94 35.5897C42.4112 35.3318 42.8046 34.9522 43.079 34.4905C43.3534 34.0287 43.4988 33.5018 43.5 32.9647V15.034C43.4998 14.4959 43.3549 13.9678 43.0804 13.505C42.8059 13.0422 42.412 12.6617 41.94 12.4034ZM24 6.00028L39.0638 14.2503L33.4819 17.3065L18.4163 9.05653L24 6.00028ZM24 22.5003L8.93625 14.2503L15.2925 10.7703L30.3562 19.0203L24 22.5003ZM7.5 16.8753L22.5 25.084V41.1697L7.5 32.9665V16.8753ZM40.5 32.959L25.5 41.1697V25.0915L31.5 21.8084V28.5003C31.5 28.8981 31.658 29.2796 31.9393 29.5609C32.2206 29.8422 32.6022 30.0003 33 30.0003C33.3978 30.0003 33.7794 29.8422 34.0607 29.5609C34.342 29.2796 34.5 28.8981 34.5 28.5003V20.1659L40.5 16.8753V32.9572V32.959Z" fill="#292219"/>
</svg>
