<svg width="48" height="48" viewBox="0 0 48 48" fill="none" xmlns="http://www.w3.org/2000/svg">
<path d="M31.5 24C29.5725 24 27.7088 23.1394 26.25 21.5775C24.8316 20.0541 23.9653 18.0225 23.8125 15.8588C23.6494 13.5506 24.3535 11.4281 25.7944 9.88125C27.2353 8.33438 29.25 7.5 31.5 7.5C33.7341 7.5 35.7544 8.34937 37.1906 9.8925C38.641 11.4506 39.3469 13.5694 39.1838 15.8578C39.0272 18.0244 38.1619 20.055 36.7463 21.5766C35.2913 23.1394 33.4285 24 31.5 24ZM43.8591 40.5H19.1419C18.7445 40.5021 18.3519 40.4131 17.9943 40.2396C17.6368 40.0662 17.3238 39.8131 17.0794 39.4997C16.8202 39.16 16.6412 38.766 16.5558 38.3473C16.4704 37.9286 16.4808 37.496 16.5863 37.0819C17.3756 33.9122 19.3313 31.2834 22.2413 29.4806C24.8241 27.8812 28.1119 27 31.5 27C34.9547 27 38.1563 27.8437 40.7541 29.4422C43.6706 31.2356 45.6291 33.8794 46.4147 37.0875C46.5189 37.5019 46.5282 37.9345 46.4418 38.353C46.3554 38.7715 46.1757 39.1651 45.916 39.5044C45.6718 39.8163 45.3595 40.0682 45.003 40.2408C44.6465 40.4134 44.2552 40.502 43.8591 40.5ZM13.7813 24.375C10.4822 24.375 7.58158 21.3075 7.31252 17.5378C7.17939 15.6066 7.78127 13.8206 9.00002 12.5109C10.2056 11.2144 11.9063 10.5 13.7813 10.5C15.6563 10.5 17.3438 11.2181 18.556 12.5222C19.7841 13.8422 20.3841 15.6244 20.2435 17.5397C19.9744 21.3084 17.0747 24.375 13.7813 24.375ZM19.9369 27.3234C18.2878 26.5172 16.1475 26.1141 13.7822 26.1141C11.0203 26.1141 8.33814 26.8341 6.22877 28.1409C3.8372 29.625 2.22845 31.7859 1.57877 34.395C1.48369 34.7703 1.4747 35.1622 1.55246 35.5414C1.63022 35.9207 1.79273 36.2774 2.02783 36.585C2.2509 36.8714 2.53669 37.1028 2.8632 37.2614C3.18972 37.42 3.54826 37.5016 3.91127 37.5H14.3175C14.4932 37.5 14.6632 37.4383 14.798 37.3257C14.9329 37.2132 15.0239 37.0569 15.0553 36.8841C15.0656 36.825 15.0788 36.7659 15.0938 36.7078C15.8888 33.5147 17.7516 30.8166 20.5041 28.8497C20.6053 28.7767 20.6867 28.6796 20.741 28.5672C20.7952 28.4548 20.8206 28.3307 20.8147 28.206C20.8088 28.0814 20.7719 27.9601 20.7074 27.8533C20.6428 27.7465 20.5527 27.6575 20.445 27.5944C20.2978 27.5081 20.1291 27.4172 19.9369 27.3234Z" fill="#292219"/>
</svg>
