<svg id="Layer_1" data-name="Layer 1" xmlns="http://www.w3.org/2000/svg" viewBox="0 0 233 43"><defs><style>.cls-1{fill:#be2328;}.cls-1,.cls-2,.cls-4{fill-rule:evenodd;}.cls-2,.cls-3{fill:#fff;}.cls-4,.cls-5{fill:#606060;}</style></defs><title>logo_TamVuong_group</title><polygon class="cls-1" points="36.51 40.82 18.57 40.82 27.43 2.18 45.37 2.18 36.51 40.82"/><path class="cls-2" d="M29,28h3l2.13-3.2c1.06-1.56,2.17-3.38,3.22-4.87L40.47,15H37.52l-6.05,9.19a3.35,3.35,0,0,1-.27-1.12l-.68-3.45c-.09-.4-.15-.74-.22-1.15l-.56-2.88a3.29,3.29,0,0,1-.1-.59H26.45A29.7,29.7,0,0,0,27,18.27Z"/><polygon class="cls-1" points="17.94 35.3 0 35.3 6.33 7.7 24.27 7.7 17.94 35.3"/><path class="cls-2" d="M8,15.27,7.46,17.4h4.18L9.21,28h3L14.59,17.4h4.1L19.24,15h-11c-.19,0-.26.06-.3.25Z"/><polygon class="cls-1" points="57.61 35.3 39.67 35.3 46 7.7 63.94 7.7 57.61 35.3"/><path class="cls-3" d="M54.93,21.35h2.84l-1.15,5a11,11,0,0,1-2.75,1.2A10.24,10.24,0,0,1,51,28a5.94,5.94,0,0,1-3.25-.86,4.5,4.5,0,0,1-1.88-2.35,5.88,5.88,0,0,1-.12-3.35,7.85,7.85,0,0,1,1.67-3.32,8.93,8.93,0,0,1,3-2.33A8.6,8.6,0,0,1,54.19,15a7.28,7.28,0,0,1,2.7.51A5.65,5.65,0,0,1,59,16.86l-2.41,2.31a3.73,3.73,0,0,0-1.34-1,3.87,3.87,0,0,0-1.66-.38,4.1,4.1,0,0,0-1.93.49,4.88,4.88,0,0,0-2.49,3.22,3.65,3.65,0,0,0,0,1.92,2.45,2.45,0,0,0,1,1.34,2.93,2.93,0,0,0,1.72.49,5.84,5.84,0,0,0,2.32-.61Z"/><path class="cls-1" d="M82.09,26.1H106.4s-2.12-4.11-2.49-4.8c-.15-.28-.24-.39-.39-.69L97.3,9.07c-.5-1-2.55-4.82-2.55-4.82L89,14c-.09.15-.11.21-.19.36L83.25,24,82.09,26.1Z"/><path class="cls-1" d="M108.07,7.8v18c0,.27.08.35.36.35h3.77V15.36a.87.87,0,0,1,.17.19,2.79,2.79,0,0,1,.19.28l5,8.26h2.12l.59-1.18c.21-.36.43-.69.67-1.1l4-6.69v11h4.13c0-2.22-.11-4-.11-6.26V7.45h-3.55c-1.31,2.49-3.58,6.05-5.07,8.62L118.7,19c-.37-.27-3.28-5.32-3.51-5.71l-3.46-5.86h-2c-.54,0-1.66-.21-1.66.35Z"/><path class="cls-1" d="M194.83,26.1h4.25V14.89l8.65,10.47a7.2,7.2,0,0,1,.56.74h3.54V7.45h-4.25V18.66L199,8.21c-.29-.38-.43-.31-.55-.76h-3.66Z"/><path class="cls-1" d="M176.85,16.77a6.67,6.67,0,0,1,.47-2.47,5.67,5.67,0,0,1,6.57-3.38,4.79,4.79,0,0,1,1.07.34,3.17,3.17,0,0,1,.93.49c5.51,4.06,1.41,13.33-5.69,10.53a5.87,5.87,0,0,1-3.35-5.51Zm-4.37,0a9.22,9.22,0,0,0,2.15,6.12,4.47,4.47,0,0,0,.54.64,11,11,0,0,0,12.1,2c5.6-2.38,7.65-10.74,2.77-15.59a9.93,9.93,0,0,0-6.7-2.86c-3.13,0-5.83.58-8.05,2.8a9.57,9.57,0,0,0-2.81,6.87Z"/><path class="cls-1" d="M215.06,16.77a9.44,9.44,0,0,0,7.35,9.42,11.18,11.18,0,0,0,1.62.27c.27,0,.53,0,.82,0a13.13,13.13,0,0,0,5.33-.94,22.9,22.9,0,0,0,2.47-1.32V16.42h-3.9V22a6.77,6.77,0,0,1-7.59-.8,6.08,6.08,0,0,1-.64-.77,7.09,7.09,0,0,1-.58-.95c-2.05-4.89,2-10.06,7.41-8.36,1.78.56,1.89,1.09,2.94,1.79L233,10.4A7.73,7.73,0,0,0,229.78,8a12.36,12.36,0,0,0-8.1-.38c-.6.26-1.1.42-1.6.68l-1.55,1a10.12,10.12,0,0,0-2.22,2.62,3.79,3.79,0,0,0-.44.85,10.12,10.12,0,0,0-.81,4Z"/><path class="cls-1" d="M153.5,7.8V17c0,4.7,1.56,8.39,6.06,9.28,2.78.55,6.43.14,8.55-2a6.91,6.91,0,0,0,1.68-2.68,12.3,12.3,0,0,0,.59-3.9V7.45h-4.25v10c0,2.88-.9,5.32-4.13,5.32a4.06,4.06,0,0,1-3.16-1.33,6.22,6.22,0,0,1-1-3.63V7.45h-4c-.27,0-.35.08-.35.35Z"/><path class="cls-1" d="M139.06,26.1h4.25l2-4.6c1-2.25,2-4.87,3-7l3-7h-4.25l-5.66,13.22a5.69,5.69,0,0,1-.76-1.61l-2.11-5c-.27-.57-.47-1.06-.71-1.66l-1.75-4.15a5.44,5.44,0,0,1-.34-.84h-4.6a48.79,48.79,0,0,0,1.93,4.68Z"/><path class="cls-1" d="M69,7.8v3.07h6V26.1h4.25V10.87h5.9V7.45H69.4c-.27,0-.36.08-.36.35Z"/><path class="cls-4" d="M140.13,39.44h92.58c.32,0,.28-.21.29-.59H140.13Z"/><path class="cls-5" d="M78.8,37.46h1.41V40a4.14,4.14,0,0,1-1.23.59,4.74,4.74,0,0,1-1.38.23,3.51,3.51,0,0,1-1.72-.42,3.21,3.21,0,0,1-1.2-1.17,3.16,3.16,0,0,1-.44-1.67,3.1,3.1,0,0,1,.45-1.65,3.15,3.15,0,0,1,1.24-1.16,3.73,3.73,0,0,1,1.77-.42,4,4,0,0,1,1.4.25,3.5,3.5,0,0,1,1.18.69l-.93,1.14a2.92,2.92,0,0,0-.78-.51,2.37,2.37,0,0,0-.88-.19,1.65,1.65,0,0,0-.9.25,1.76,1.76,0,0,0-.64.66,2,2,0,0,0-.23.94,2,2,0,0,0,.23.95,1.68,1.68,0,0,0,.65.67,1.77,1.77,0,0,0,.91.24,2.53,2.53,0,0,0,1.09-.3Z"/><path class="cls-5" d="M91.92,40.66,91,38.93H89.79v1.73H88.15V34.38H91A2.92,2.92,0,0,1,92.9,35a2,2,0,0,1,.69,1.63,2.47,2.47,0,0,1-.29,1.22,2,2,0,0,1-.83.8l1.31,2Zm-2.13-3H91a1.18,1.18,0,0,0,.78-.25,1,1,0,0,0,.27-.73.9.9,0,0,0-.27-.7,1.13,1.13,0,0,0-.78-.25H89.79Z"/><path class="cls-5" d="M106.22,34.71a3.14,3.14,0,0,1,1.66,2.8,3.17,3.17,0,0,1-.45,1.67,3.24,3.24,0,0,1-1.21,1.17,3.51,3.51,0,0,1-1.74.43,3.54,3.54,0,0,1-1.73-.42,3.22,3.22,0,0,1-1.22-1.18,3.16,3.16,0,0,1-.44-1.67,3.09,3.09,0,0,1,.44-1.65,3.14,3.14,0,0,1,1.22-1.15,3.54,3.54,0,0,1,1.73-.42A3.61,3.61,0,0,1,106.22,34.71Zm-2.59,1.21a1.82,1.82,0,0,0-.63.66,2,2,0,0,0-.23.94,1.85,1.85,0,0,0,.24.94,1.88,1.88,0,0,0,.63.68,1.62,1.62,0,0,0,.86.24,1.56,1.56,0,0,0,.85-.24,1.77,1.77,0,0,0,.62-.68,2,2,0,0,0,.22-.94,2,2,0,0,0-.22-.94,1.71,1.71,0,0,0-.62-.66,1.49,1.49,0,0,0-.85-.25A1.6,1.6,0,0,0,103.63,35.92Z"/><path class="cls-5" d="M117.43,39a1.18,1.18,0,0,0,.88.36,1.1,1.1,0,0,0,.86-.35,1.34,1.34,0,0,0,.33-1v-3.7h1.64v3.7a2.82,2.82,0,0,1-.35,1.42,2.36,2.36,0,0,1-1,1,3.6,3.6,0,0,1-3,0,2.38,2.38,0,0,1-1-1,2.82,2.82,0,0,1-.35-1.42v-3.7h1.64v3.7A1.24,1.24,0,0,0,117.43,39Z"/><path class="cls-5" d="M133.73,35a2.06,2.06,0,0,1,.66,1.63,2.23,2.23,0,0,1-.66,1.72,2.63,2.63,0,0,1-1.86.62h-1.12v1.73h-1.64V34.38h2.76A2.76,2.76,0,0,1,133.73,35Zm-1.17,2.41a1,1,0,0,0,.28-.73.9.9,0,0,0-.28-.7,1.08,1.08,0,0,0-.77-.25h-1v1.93h1A1.13,1.13,0,0,0,132.56,37.37Z"/></svg>