<svg id="Layer_1" data-name="Layer 1" xmlns="http://www.w3.org/2000/svg" viewBox="0 0 1256.22 657.64"><defs><style>.cls-1{fill:none;}.cls-2{fill:#be2328;}.cls-2,.cls-3{fill-rule:evenodd;}.cls-3,.cls-4{fill:#fff;}.cls-5{fill:#606060;}</style></defs><title>logo_TAMVUONG_2020_cv</title><rect class="cls-1" width="1256.22" height="657.64"/><polygon class="cls-2" points="694.81 562.17 435.58 562.17 563.66 3.82 822.89 3.82 694.81 562.17"/><path class="cls-3" d="M420.79,372.79h42.68l30.73-46.22c15.3-22.5,31.4-48.88,46.57-70.3L587,185.56H544.32L457,318.27c-2.72-4.24-2.93-10.73-3.89-16.11l-9.82-49.84c-1.37-5.76-2.24-10.69-3.25-16.64L432,194c-.52-3.12-1.43-4.77-1.46-8.45H384.36c-.71,4.87,7.7,43.23,8.58,47Z" transform="translate(165.04 3.82)"/><polygon class="cls-2" points="426.53 482.4 167.29 482.4 258.78 83.58 518.01 83.58 426.53 482.4"/><path class="cls-3" d="M117.1,189.12,110,219.91h60.43L135.4,372.79h42.66l35.06-152.88h59.26l7.88-34.35H121.47c-2.73,0-3.74.83-4.37,3.56" transform="translate(165.04 3.82)"/><polygon class="cls-2" points="999.7 482.4 740.46 482.4 831.95 83.58 1091.18 83.58 999.7 482.4"/><path class="cls-4" d="M795.91,277H837l-16.65,72.6q-17,10.68-39.75,17.31T738.9,373.5q-27.58,0-47-12.35a65.68,65.68,0,0,1-27.2-34q-7.8-21.6-1.65-48.4a112.66,112.66,0,0,1,24.15-48,128.36,128.36,0,0,1,43.9-33.7,125.07,125.07,0,0,1,54.2-12.23,104.08,104.08,0,0,1,38.89,7.41q18.6,7.43,29.78,19.91l-34.7,33.31a55,55,0,0,0-19.36-14.83,56.05,56.05,0,0,0-24.13-5.47,59,59,0,0,0-27.89,7A70.87,70.87,0,0,0,725,251.46a68.74,68.74,0,0,0-13,27.33q-3.53,15.34.4,27.71a35.78,35.78,0,0,0,14.3,19.38q10.35,7,24.93,7,13.78,0,33.51-8.85Z" transform="translate(165.04 3.82)"/><path class="cls-5" d="M0,604.61H10.85l12.2,33.71L35.3,604.61H45.71L28,649.3H17.56Z" transform="translate(165.04 3.82)"/><path class="cls-5" d="M101.7,601.29a7.74,7.74,0,0,1-2,5.46,10.45,10.45,0,0,1-5.75,2.9v21.2A20.6,20.6,0,0,1,91.58,641a16.28,16.28,0,0,1-6.86,6.64A22.54,22.54,0,0,1,74.18,650a22.89,22.89,0,0,1-10.59-2.33,16.3,16.3,0,0,1-7-6.64,20.39,20.39,0,0,1-2.43-10.18V604.61H64.29v26.24A10.34,10.34,0,0,0,67,638.41a9.67,9.67,0,0,0,7.25,2.78,9.23,9.23,0,0,0,7-2.75,10.56,10.56,0,0,0,2.62-7.59V604.61h6.44v-.06a4.29,4.29,0,0,0,3-.9,3,3,0,0,0,1-2.36,6.54,6.54,0,0,0-1-3.32l7.09-2.68A16.27,16.27,0,0,1,101.7,601.29Z" transform="translate(165.04 3.82)"/><path class="cls-5" d="M155.26,601.93a9.69,9.69,0,0,1-6.51,9.38,21.38,21.38,0,0,1,4.5,7.06,23.19,23.19,0,0,1,1.57,8.52A22.58,22.58,0,0,1,143,647a26,26,0,0,1-24.38,0,22.51,22.51,0,0,1-11.81-20.08,22.46,22.46,0,0,1,11.78-20,26.41,26.41,0,0,1,23.27-.58,7.2,7.2,0,0,0,1.66.26,3.51,3.51,0,0,0,2.87-1.25,4.72,4.72,0,0,0,1-3.09A7.21,7.21,0,0,0,146,598l7.53-2.74A14,14,0,0,1,155.26,601.93Zm-17.52,37.38a13.72,13.72,0,0,0,4.91-5.17,14.65,14.65,0,0,0,1.82-7.25,14.32,14.32,0,0,0-1.82-7.15,13.78,13.78,0,0,0-4.91-5.14,12.81,12.81,0,0,0-6.8-1.88,13.31,13.31,0,0,0-6.9,1.88,13.74,13.74,0,0,0-5,5.14,14.47,14.47,0,0,0,5.08,19.53,13.23,13.23,0,0,0,13.66,0Z" transform="translate(165.04 3.82)"/><path class="cls-5" d="M198.42,604.61H208V649.3H198.8l-21.64-28.73V649.3h-9.64V604.61h9.19l21.71,28.86Z" transform="translate(165.04 3.82)"/><path class="cls-5" d="M237,604.61h37.35v8.55H260.73V649.3H250.64V613.16H237Z" transform="translate(165.04 3.82)"/><path class="cls-5" d="M312.5,649.3,309,640.62H288.31l-3.51,8.68H274.39l19.41-44.69h10.4l19.09,44.69Zm-1-48h-8.55l-4.09-3.64-4.15,3.64h-8.55l7.08-7.34h11.11Zm-16.34-19,8.62,8-6.2,1.72-9.64-5.23Zm-3.51,50.18h14.11l-7-17.37Z" transform="translate(165.04 3.82)"/><path class="cls-5" d="M332.29,604.61h11.24l13.92,27.45,13.79-27.45h11.17V649.3h-9.07V619.1l-12.7,25.66h-6.51L341.36,619.1v30.2h-9.07Z" transform="translate(165.04 3.82)"/><path class="cls-5" d="M414.65,626.51h16.47V633H414.65Z" transform="translate(165.04 3.82)"/><path class="cls-5" d="M458.38,604.61h10.85l12.2,33.71,12.25-33.71h10.41L486.34,649.3h-10.4Z" transform="translate(165.04 3.82)"/><path class="cls-5" d="M560.08,601.29a7.74,7.74,0,0,1-2,5.46,10.45,10.45,0,0,1-5.75,2.9v21.2A20.6,20.6,0,0,1,550,641a16.28,16.28,0,0,1-6.86,6.64A22.54,22.54,0,0,1,532.56,650,22.89,22.89,0,0,1,522,647.67a16.3,16.3,0,0,1-7-6.64,20.39,20.39,0,0,1-2.43-10.18V604.61h10.09v26.24a10.34,10.34,0,0,0,2.71,7.56,9.67,9.67,0,0,0,7.25,2.78,9.23,9.23,0,0,0,7-2.75,10.56,10.56,0,0,0,2.62-7.59V604.61h6.44v-.06a4.29,4.29,0,0,0,3-.9,3,3,0,0,0,1-2.36,6.54,6.54,0,0,0-1-3.32l7.09-2.68A16.27,16.27,0,0,1,560.08,601.29Zm-17.78-2.68a4.75,4.75,0,0,1-4.5,2.49,7.53,7.53,0,0,1-2.68-.48,28.79,28.79,0,0,1-3-1.37,12.29,12.29,0,0,0-1.54-.77,3.5,3.5,0,0,0-1.27-.32,1.42,1.42,0,0,0-1.34.67,4.69,4.69,0,0,0-.45,2.08h-5.81a15,15,0,0,1,1.37-7.09,4.75,4.75,0,0,1,4.5-2.49,7.53,7.53,0,0,1,2.68.48,28.84,28.84,0,0,1,3,1.37,6.86,6.86,0,0,0,2.8,1.15,1.38,1.38,0,0,0,1.34-.7,4.74,4.74,0,0,0,.45-2h5.81A14.79,14.79,0,0,1,542.3,598.61Z" transform="translate(165.04 3.82)"/><path class="cls-5" d="M599.28,604.61h9.57V649.3h-9.19L578,620.57V649.3h-9.64V604.61h9.19l21.71,28.86Z" transform="translate(165.04 3.82)"/><path class="cls-5" d="M653,626.76h8.75v17.37A33.19,33.19,0,0,1,643.65,650a24.43,24.43,0,0,1-12.13-3,22.55,22.55,0,0,1-11.69-20.08,22.13,22.13,0,0,1,3.2-11.71,22.39,22.39,0,0,1,8.77-8.27,25.86,25.86,0,0,1,12.42-3,27.51,27.51,0,0,1,9.74,1.78,26,26,0,0,1,8.2,4.86l-5.68,7.21a18.54,18.54,0,0,0-5.75-3.7,16.86,16.86,0,0,0-6.51-1.34,13.87,13.87,0,0,0-12.19,7,14.09,14.09,0,0,0-1.85,7.18,14.28,14.28,0,0,0,1.88,7.25,13.89,13.89,0,0,0,12.23,7.05,15.21,15.21,0,0,0,4.27-.67A23.57,23.57,0,0,0,653,638.7Z" transform="translate(165.04 3.82)"/><path class="cls-5" d="M689.8,604.61h37.35v8.55H713.49V649.3H703.4V613.16H689.8Z" transform="translate(165.04 3.82)"/><path class="cls-5" d="M765.27,649.3l-3.52-8.68H741.07l-3.51,8.68H727.15l19.41-44.69H757l19.08,44.69ZM763,600.84h-7.79l-3.64-4.15-3.7,4.15h-7.72l6.89-9.45h9Zm-18.64,31.67H758.5l-7-17.37Z" transform="translate(165.04 3.82)"/><path class="cls-5" d="M785.05,604.61h11.24l13.92,27.45L824,604.61h11.17V649.3h-9.06V619.1L813.4,644.76h-6.51L794.12,619.1v30.2h-9.07Z" transform="translate(165.04 3.82)"/></svg>